<?xml version="1.0" encoding="iso-8859-1"?>
<!-- Generator: Adobe Illustrator 19.0.0, SVG Export Plug-In . SVG Version: 6.00 Build 0)  -->
<svg version="1.1" id="Capa_1" xmlns="http://www.w3.org/2000/svg" xmlns:xlink="http://www.w3.org/1999/xlink" x="0px" y="0px"
	 viewBox="0 0 59.999 59.999" style="enable-background:new 0 0 59.999 59.999;" xml:space="preserve">
<g>
	<path d="M51.675,21.929c-11.889-11.889-31.233-11.889-43.122,0L0.613,29.87l7.711,7.711c5.759,5.759,13.416,8.931,21.561,8.931
		s15.801-3.171,21.56-8.931l7.941-7.941L51.675,21.929z M50.031,36.167c-5.381,5.381-12.536,8.345-20.146,8.345
		s-14.765-2.963-20.146-8.345L3.441,29.87l6.527-6.527c11.109-11.108,29.186-11.108,40.293,0l6.297,6.297L50.031,36.167z"/>
	<path d="M29.67,16.969c-7.065,0-12.813,5.748-12.813,12.813s5.748,12.813,12.813,12.813s12.813-5.748,12.813-12.813
		S36.735,16.969,29.67,16.969z M29.67,40.594c-5.962,0-10.813-4.851-10.813-10.813c0-5.962,4.851-10.813,10.813-10.813
		s10.813,4.851,10.813,10.813C40.483,35.744,35.632,40.594,29.67,40.594z"/>
</g>
<g>
</g>
<g>
</g>
<g>
</g>
<g>
</g>
<g>
</g>
<g>
</g>
<g>
</g>
<g>
</g>
<g>
</g>
<g>
</g>
<g>
</g>
<g>
</g>
<g>
</g>
<g>
</g>
<g>
</g>
</svg>
